<?xml version="1.0" encoding="utf-8" standalone="yes"?>
<!DOCTYPE svg PUBLIC "-//W3C//DTD SVG 1.1//EN" "http://www.w3.org/Graphics/SVG/1.1/DTD/svg11.dtd">
<svg style="fill:none;stroke:none;fill-rule:evenodd;clip-rule:evenodd;stroke-linecap:round;stroke-linejoin:round;stroke-miterlimit:1.5;" version="1.1" xmlns="http://www.w3.org/2000/svg" xmlns:xlink="http://www.w3.org/1999/xlink" width="743" height="443" viewBox="0 0 743 443"><style class="text-font-style fontImports" data-font-family="Roboto">@import url(https://fonts.googleapis.com/css2?family=Roboto:wght@400;700&amp;amp;display=block);</style><g id="items" style="isolation: isolate"><g id="blend" style="mix-blend-mode: normal"><g id="g-root-sy_3_Vector_zpo19r15z9hje-fill" data-item-order="-76854" transform="translate(185.58050537109375, 243.06378173828125)"><g id="sy_3_Vector_zpo19r15z9hje-fill-merged" stroke="none" fill="#a6da37" fill-opacity="1"><g><path d="M107.735 58.892L121.7 46L107.735 33.107 V40.284 H81.548C78.81 23.118 63.937 10 46 10C26.118 10 10 26.118 10 46C10 65.882 26.118 82 46 82C63.912 82 78.769 68.918 81.537 51.787 H107.735 V58.892"></path></g></g></g><g id="g-root-sy_2_Vector_93dhm715z9hjf-fill" data-item-order="-76850" transform="translate(455.70147705078125, 141.06375122070312)"><g id="sy_2_Vector_93dhm715z9hjf-fill-merged" stroke="none" fill="#43dd93" fill-opacity="1"><g><path d="M28.926 94.115L10 92.435L13.168 73.69L17.554 79.375L38.171 63.451L38.311 63.336C36.237 59.562 34.811 55.349 34.199 50.825C31.537 31.122 45.351 12.991 65.054 10.328C84.757 7.666 102.888 21.48 105.551 41.183C108.213 60.886 94.399 79.017 74.696 81.68C63.604 83.179 53.01 79.456 45.394 72.4L45.209 72.557L24.584 88.487L28.926 94.115"></path></g></g></g><g id="g-root-sy_1_Vector_1qdu06n15z9gjo-fill" data-item-order="-76846" transform="translate(215.58062744140625, 141.06271362304688)"><g id="sy_1_Vector_1qdu06n15z9gjo-fill-merged" stroke="none" fill="#fb6762" fill-opacity="1"><g><path d="M86.975 94.102L105.903 92.444L102.756 73.695L98.364 79.375L77.738 63.405L77.595 63.288C79.654 59.526 81.071 55.331 81.679 50.828C84.343 31.125 70.53 12.993 50.828 10.329C31.125 7.665 12.993 21.478 10.329 41.181C7.665 60.884 21.478 79.016 41.18 81.68C52.289 83.182 62.898 79.446 70.517 72.37L70.696 72.509L91.324 88.479L86.975 94.102"></path></g></g></g><g id="g-root-cr_0_cr-big_1d2dhtb15z9i4l-fill" data-item-order="-76842" transform="translate(311.58050537109375, 207.06378173828125)"><g id="cr_0_cr-big_1d2dhtb15z9i4l-fill-merged" stroke="none" fill="#e8e8e8" fill-opacity="1"><g><path d="M10 82C10 121.765 42.236 154 82 154C121.765 154 154 121.765 154 82C154 42.236 121.765 10 82 10C42.236 10 10 42.236 10 82"></path></g></g></g><g id="g-root-tx_relacion_2qru715z2hhi-fill" data-item-order="0" transform="translate(107.58050537109375, 63.063751220703125)"><g id="tx_relacion_2qru715z2hhi-fill-merged" stroke="none" fill="#f4f4f4" fill-opacity="1"><g><text style="font: bold 25px Roboto, sans-serif; white-space: pre;" transform="translate(286, 28)" font-weight="bold" font-size="25px" font-family="Roboto, sans-serif"><tspan x="-271.8" y="14.6" dominant-baseline="ideographic">Relaciones Clave en Fenómenos del Mundo Real</tspan></text></g></g></g><g id="g-root-ic_appl_hun9f315yvfgv-fill" data-item-order="0" transform="translate(227.58050537109375, 153.06375122070312)"></g><g id="g-root-ic_4_1cymqgf15yu0aw-fill" data-item-order="0" transform="translate(491.56451416015625, 153.06375122070312)"></g><g id="g-root-tx_objetoen_v4utm715z2gp9-fill" data-item-order="0" transform="translate(47.58050537109375, 153.06378173828125)"><g id="tx_objetoen_v4utm715z2gp9-fill-merged" stroke="none" fill="#f4f4f4" fill-opacity="1"><g><text style="font: 20px Roboto, sans-serif; white-space: pre;" transform="translate(166, 34)" font-size="20px" font-family="Roboto, sans-serif"><tspan x="-142.73" y="0" dominant-baseline="ideographic">Objeto en Caída </tspan><tspan x="-46.06" y="24" dominant-baseline="ideographic">Libre</tspan></text></g></g></g><g id="g-root-tx_crecimie_m7yv7315z2g3n-fill" data-item-order="0" transform="translate(563.5805053710938, 141.06378173828125)"><g id="tx_crecimie_m7yv7315z2g3n-fill-merged" stroke="none" fill="#f4f4f4" fill-opacity="1"><g><text style="font: 20px Roboto, sans-serif; white-space: pre;" transform="translate(10, 46)" font-size="20px" font-family="Roboto, sans-serif"><tspan x="2" y="-12" dominant-baseline="ideographic">Crecimiento de </tspan><tspan x="2" y="12" dominant-baseline="ideographic">Población de </tspan><tspan x="2" y="36" dominant-baseline="ideographic">Bacterias</tspan></text></g></g></g><g id="g-root-ic_cap_dkfxwv15z9ixa-fill" data-item-order="0" transform="translate(197.58050537109375, 255.06378173828125)"></g><g id="g-root-ic_spar_1cwrb7315ywsuj-fill" data-item-order="0" transform="translate(347.58050537109375, 243.06378173828125)"></g><g id="g-root-tx_corrient_i09j7315z13b5-fill" data-item-order="0" transform="translate(17.58050537109375, 255.06378173828125)"><g id="tx_corrient_i09j7315z13b5-fill-merged" stroke="none" fill="#f4f4f4" fill-opacity="1"><g><text style="font: 20px Roboto, sans-serif; white-space: pre;" transform="translate(166, 34)" font-size="20px" font-family="Roboto, sans-serif"><tspan x="-137.29" y="0" dominant-baseline="ideographic">Corriente en un </tspan><tspan x="-152.91" y="24" dominant-baseline="ideographic">Circuito Eléctrico</tspan></text></g></g></g><g id="g-root-sy_3_Vector_zpo19r15z9hje-stroke" data-item-order="-76854" transform="translate(185.58050537109375, 243.06378173828125)"><g id="sy_3_Vector_zpo19r15z9hje-stroke" fill="none" stroke-linecap="round" stroke-linejoin="round" stroke-miterlimit="4" stroke="#2c2c2c" stroke-width="2" stroke-opacity="1"><g><path d="M 107.735 58.892L 121.7 46L 107.735 33.107L 107.735 40.284L 81.548 40.284C 78.81 23.118 63.937 10 46 10C 26.118 10 10 26.118 10 46C 10 65.882 26.118 82 46 82C 63.912 82 78.769 68.918 81.537 51.787L 107.735 51.787L 107.735 58.892Z"></path></g></g></g><g id="g-root-sy_2_Vector_93dhm715z9hjf-stroke" data-item-order="-76850" transform="translate(455.70147705078125, 141.06375122070312)"><g id="sy_2_Vector_93dhm715z9hjf-stroke" fill="none" stroke-linecap="round" stroke-linejoin="round" stroke-miterlimit="4" stroke="#2c2c2c" stroke-width="2" stroke-opacity="1"><g><path d="M 28.925998 94.115L 9.999998 92.435L 13.167998 73.69L 17.553998 79.375L 38.170998 63.451L 38.310998 63.336C 36.236998 59.562 34.810998 55.349 34.198998 50.825C 31.536998 31.122 45.350998 12.991 65.053998 10.3285C 84.756998 7.666 102.887998 21.48 105.550998 41.183C 108.212998 60.886 94.398998 79.017 74.695998 81.68C 63.603998 83.179 53.009998 79.456 45.393998 72.4L 45.208998 72.557L 24.583998 88.487L 28.925998 94.115Z"></path></g></g></g><g id="g-root-sy_1_Vector_1qdu06n15z9gjo-stroke" data-item-order="-76846" transform="translate(215.58062744140625, 141.06271362304688)"><g id="sy_1_Vector_1qdu06n15z9gjo-stroke" fill="none" stroke-linecap="round" stroke-linejoin="round" stroke-miterlimit="4" stroke="#2c2c2c" stroke-width="2" stroke-opacity="1"><g><path d="M 86.974863 94.102038L 105.902863 92.444038L 102.755863 73.695038L 98.363863 79.375038L 77.737863 63.405038L 77.594863 63.288038C 79.653863 59.526038 81.070863 55.331038 81.678863 50.828038C 84.342863 31.125038 70.529863 12.992838 50.827863 10.328838C 31.124863 7.664938 12.992863 21.478038 10.328863 41.181038C 7.664863 60.884038 21.477863 79.016038 41.179863 81.680038C 52.288863 83.182038 62.897863 79.446038 70.516863 72.370038L 70.695863 72.509038L 91.323863 88.479038L 86.974863 94.102038Z"></path></g></g></g><g id="g-root-cr_0_cr-big_1d2dhtb15z9i4l-stroke" data-item-order="-76842" transform="translate(311.58050537109375, 207.06378173828125)"><g id="cr_0_cr-big_1d2dhtb15z9i4l-stroke" fill="none" stroke-linecap="round" stroke-linejoin="round" stroke-miterlimit="4" stroke="#2c2c2c" stroke-width="2" stroke-opacity="1"><g><path d="M 10 82C 10.000001 121.764503 42.235499 154.000001 82.000001 154.000001C 121.764503 154.000001 154.000001 121.764503 154.000001 82.000001C 154.000001 42.235499 121.764503 10.000001 82.000001 10.000001C 42.235499 10.000001 10.000001 42.235499 10.000001 82.000001"></path></g></g></g><g id="g-root-tx_relacion_2qru715z2hhi-stroke" data-item-order="0" transform="translate(107.58050537109375, 63.063751220703125)"></g><g id="g-root-ic_appl_hun9f315yvfgv-stroke" data-item-order="0" transform="translate(227.58050537109375, 153.06375122070312)"><g id="ic_appl_hun9f315yvfgv-stroke" fill="none" stroke-linecap="round" stroke-linejoin="round" stroke-miterlimit="4" stroke="#2c2c2c" stroke-width="2" stroke-opacity="1"><g><path d="M 45.599998 17.49902C 47.256802 17.49902 48.599998 16.15588 48.599998 14.49902C 48.599998 12.84216 47.256802 11.499024 45.599998 11.499024C 43.943199 11.499024 42.599998 12.84216 42.599998 14.49902C 42.599998 16.15588 43.943199 17.49902 45.599998 17.49902ZM 10 10M 42.599998 15.33814L 31.200001 18.938141M 10 10M 30.3106 16.13818L 32.1106 21.938179C 32.710602 23.538181 31.7106 25.13818 30.1106 25.73818C 28.5105 26.338181 26.9105 25.338181 26.310499 23.73818L 24.710499 17.938179C 24.1105 16.338181 25.1105 14.73818 26.5105 14.13818C 28.1105 13.73818 29.9105 14.538179 30.3106 16.13818ZM 10 10M 14 24.73814L 13.2 21.538139C 12.6 19.938141 13.4 18.338139 15 17.73814C 16.6 17.13814 18.200001 18.13814 18.799999 19.73814L 20.200001 24.13814M 10 10M 19.799999 22.738159L 18 16.93816C 17.4 15.33816 18.4 13.73816 20 13.13816C 21.6 12.53816 23.200001 13.53816 23.799999 15.138161L 25 18.93816M 49.900002 36.378998C 46.299999 36.378998 46.299999 37.979 45.099998 37.979C 43.900002 37.979 43.900002 36.378998 40.299999 36.378998C 36.700001 36.378998 33.700001 40.179001 33.700001 44.979C 33.700001 47.379002 34.700001 50.379002 36.099998 52.778999C 36.099998 52.778999 39.5 59.778999 45.099998 54.578999C 50.700001 59.778999 54.099998 52.778999 54.099998 52.778999C 55.5 50.379002 56.5 47.379002 56.5 44.979C 56.5 40.179001 53.5 36.378998 49.900002 36.378998ZM 45.099998 37.979L 45.099998 36.378998C 45.099998 34.179001 45.099998 29.57902 51.5 28.379021M 11.5 29.5382L 11.5 42.738201C 11.5 44.738201 13.1 46.5382 15.3 46.5382C 17.299999 46.5382 19.1 44.938202 19.1 42.738201L 19.1 36.138199C 19.1 38.138199 20.700001 39.938202 22.9 39.938202C 25.1 39.938202 26.700001 38.3382 26.700001 36.138199L 26.700001 31.3382"></path></g></g></g><g id="g-root-ic_4_1cymqgf15yu0aw-stroke" data-item-order="0" transform="translate(491.56451416015625, 153.06375122070312)"><g id="ic_4_1cymqgf15yu0aw-stroke" fill="none" stroke-linecap="round" stroke-linejoin="round" stroke-miterlimit="4" stroke="#2c2c2c" stroke-width="2" stroke-opacity="1"><g><path d="M 55.773201 26.709961L 55.773201 34.982002C 55.773201 42.9538 46.024799 49.416199 33.999397 49.416199C 21.97406 49.416199 12.22558 42.9538 12.22558 34.982002L 12.22558 26.709961M 33.999397 41.094601C 46.024799 41.094601 55.773201 34.632202 55.773201 26.66032C 55.773201 18.688499 46.024799 12.22608 33.999397 12.22608C 21.97406 12.22608 12.22558 18.688499 12.22558 26.66032C 12.22558 34.632202 21.97406 41.094601 33.999397 41.094601ZM 55.368198 29.9515C 53.4104 23.31234 44.587399 18.30224 33.999199 18.30224C 23.411041 18.30224 14.58802 23.31234 12.63038 29.9515M 22.620701 32.260201C 24.243641 32.260201 25.55928 31.226601 25.55928 29.95142C 25.55928 28.676279 24.243641 27.64258 22.620701 27.64258C 20.99778 27.64258 19.682121 28.676279 19.682121 29.95142C 19.682121 31.226601 20.99778 32.260201 22.620701 32.260201ZM 36.037003 29.30834C 35.6492 29.40086 35.2332 29.451099 34.800201 29.451099C 32.702 29.451099 31.000999 28.27182 31.000999 26.817101C 31.000999 25.362381 32.702 24.1831 34.800201 24.1831C 35.885201 24.1831 36.8638 24.49844 37.556198 25.00416C 38.466202 24.49082 39.627197 24.1831 40.891998 24.1831C 43.813202 24.1831 46.1814 25.82498 46.1814 27.85034C 46.1814 29.875719 43.813202 31.517599 40.891998 31.517599C 38.718002 31.517599 36.850403 30.6084 36.037003 29.30834ZM 28.372641 34.840797C 32.4814 33.269402 33.157799 38.419399 37.125603 36.153"></path></g></g></g><g id="g-root-tx_objetoen_v4utm715z2gp9-stroke" data-item-order="0" transform="translate(47.58050537109375, 153.06378173828125)"></g><g id="g-root-tx_crecimie_m7yv7315z2g3n-stroke" data-item-order="0" transform="translate(563.5805053710938, 141.06378173828125)"></g><g id="g-root-ic_cap_dkfxwv15z9ixa-stroke" data-item-order="0" transform="translate(197.58050537109375, 255.06378173828125)"><g id="ic_cap_dkfxwv15z9ixa-stroke" fill="none" stroke-linecap="round" stroke-linejoin="round" stroke-miterlimit="4" stroke="#2c2c2c" stroke-width="2" stroke-opacity="1"><g><path d="M 10 10M 56.013599 47.5546L 16.439461 47.5546L 16.439461 38.535M 56.013599 20.44536L 16.439461 20.44536L 16.439461 29.277941M 11.986 34C 11.986 36.458771 13.979229 38.452003 16.438 38.452003C 18.896772 38.452003 20.889999 36.458771 20.889999 34C 20.889999 31.541229 18.896772 29.548 16.438 29.548C 13.979229 29.548 11.986 31.541229 11.986 34M 56.013599 34L 20.939461 34"></path></g></g></g><g id="g-root-ic_spar_1cwrb7315ywsuj-stroke" data-item-order="0" transform="translate(347.58050537109375, 243.06378173828125)"><g id="ic_spar_1cwrb7315ywsuj-stroke" fill="none" stroke-linecap="round" stroke-linejoin="round" stroke-miterlimit="4" stroke="#2c2c2c" stroke-width="2" stroke-opacity="1"><g><path d="M 51.379002 27.1639C 58.315903 25.769381 63.900997 20.11636 65.297798 13C 66.694298 20.11636 72.278198 25.769381 79.215096 27.1639M 79.215096 27.172029C 72.278198 28.566549 66.6931 34.21957 65.296303 41.335899C 63.899498 34.21957 58.315903 28.566549 51.379002 27.172029M 42.976601 26.74567C 41.692898 26.55298 40.378601 26.45314 39.040539 26.45314C 24.556841 26.45314 12.786133 38.18008 12.786133 52.707397L 12.786133 52.751198C 12.786133 67.234901 24.5131 79.005699 39.040539 79.005699C 53.5243 79.005699 65.2948 67.278702 65.2948 52.751198C 65.2948 51.807701 65.2453 50.875603 65.149002 49.957901M 39.041828 26.45314C 33.178299 26.45314 28.413101 38.18008 28.413101 52.707397L 28.413101 52.751198C 28.413101 67.234901 33.160599 79.005699 39.041828 79.005699C 44.9053 79.005699 49.670502 67.278702 49.670502 52.751198C 49.670502 49.899399 49.487503 47.153801 49.149101 44.5825M 12.786133 52.7383L 65.295403 52.7383"></path></g></g></g><g id="g-root-tx_corrient_i09j7315z13b5-stroke" data-item-order="0" transform="translate(17.58050537109375, 255.06378173828125)"></g></g></g><path id="wqn6c1r14uygw0" d="M65.283 12.757a.35.35 0 0 0 .584.157l5.203-5.141-6.183 3.523.396 1.461zm-2.216-11.7a.35.35 0 0 0-.522.305v3.111l3.276-1.868-2.754-1.548zm3.728 2.105l-4.25 2.421v2.445l6.391-3.644-2.141-1.222zm4.708 3.303a.35.35 0 0 0 0-.609l-1.592-.9-7.365 4.199v1.782a.35.35 0 0 0 .523.305l8.435-4.777z M44.542 2.513c0-.433.355-.783.792-.783s.792.35.792.783-.355.783-.792.783-.792-.35-.792-.783zm59.171 0c0-.433.355-.783.792-.783s.792.35.792.783-.355.783-.792.783-.792-.35-.792-.783zm-85.951 7.636h-1.27v-.487c-.276.201-.864.609-1.881.609-1.202 0-2.274-.794-2.137-2.078.118-1.106 1.153-1.584 1.848-1.727l2.17-.345c0-.539-.29-.956-1.064-1.006s-1.21.305-1.571 1.017l-1.124-.605c1.218-2.631 5.029-1.764 5.029.414v4.207zm-1.27-2.86c.006.396-.062 1.112-.819 1.59-.587.37-1.841.299-1.903-.395-.049-.555.461-.791.906-.898l1.816-.297zm72.662 2.86h-1.27v-.487c-.276.201-.864.609-1.881.609-1.202 0-2.274-.794-2.137-2.078.118-1.106 1.153-1.584 1.848-1.727l2.17-.345c0-.539-.29-.956-1.064-1.006s-1.21.305-1.571 1.017l-1.124-.605c1.218-2.631 5.029-1.764 5.029.414v4.207zm-1.27-2.86c.006.396-.062 1.112-.82 1.59-.587.37-1.841.299-1.903-.395-.049-.555.461-.791.906-.898l1.816-.297zM99.096 10.149H97.85v-8.45h1.246v4.895l2.68-2.559h1.738l-2.633 2.535 2.715 3.578h-1.556l-2.077-2.707-.867.844v1.863zm6.053-6.114h-1.255v6.113h1.255V4.035zm-59.2 0h-1.255v6.113h1.255V4.035zm5.584 6.113V1.697h1.255v2.695c.361-.346 1-.485 1.47-.485 1.452 0 2.477 1.082 2.457 2.448v3.792h-1.27v-3.68c0-.408-.214-1.339-1.315-1.339-.968 0-1.342.756-1.342 1.339v3.681h-1.255zm-4.76-4.894V4.039h.621a.45.45 0 0 0 .45-.45v-.855h1.251v1.305h1.309v1.215h-1.309v3.109c0 .293.105.664.648.664.365 0 .531-.035.736-.07v1.137s-.361.113-.857.113c-1.398 0-1.777-1.051-1.777-1.788V5.254h-1.071zM36.528 4.039h-1.394l2.191 6.106h1.125l1.234-3.918 1.238 3.918h1.129l2.188-6.106h-1.383l-1.359 3.93-1.256-3.93h-1.124l-1.242 3.957-1.348-3.957zM26.212 7.141c-.02 1.566 1.187 3.129 3.223 3.129 1.566 0 2.383-.918 2.734-1.719L31.172 8c-.315.399-.801 1.094-1.738 1.094-1.145 0-1.825-.781-1.891-1.52h4.625c.074-.284.148-.995-.03-1.559-.336-1.064-1.221-2.102-2.839-2.102s-3.088 1.152-3.088 3.227zm1.363-.75h3.348c-.055-.43-.566-1.301-1.623-1.301a1.79 1.79 0 0 0-1.725 1.301zm-8.758.75c.038 1.758 1.277 3.133 3.145 3.133 1.074 0 1.723-.477 1.961-.672v.547h1.242V1.703h-1.258v2.888c-.414-.36-1.062-.68-1.93-.68-1.91 0-3.198 1.473-3.16 3.23zm1.309-.08c0 1.119.723 1.978 1.836 1.978a1.88 1.88 0 0 0 1.94-1.904c0-1.371-1.011-1.99-1.972-1.99s-1.805.798-1.805 1.916zm76.683-.028C96.771 5.275 95.532 3.9 93.664 3.9c-1.074 0-1.723.477-1.961.672v-.547h-1.242v8.22h1.258V9.583c.414.36 1.063.68 1.93.68 1.91 0 3.198-1.473 3.16-3.23zm-1.309.08c0-1.119-.723-1.978-1.836-1.978a1.88 1.88 0 0 0-1.94 1.904c0 1.371 1.011 1.99 1.972 1.99S95.5 8.231 95.5 7.113zM106.441 10.173V4.036h1.254v.382c.361-.346 1-.485 1.47-.485 1.452 0 2.477 1.082 2.457 2.448v3.792h-1.27V6.492c0-.408-.214-1.339-1.315-1.339-.969 0-1.342.756-1.342 1.339v3.681h-1.254zm-30.383-.021V1.824h1.084l4.215 5.777V1.824h1.32v8.328h-1.094l-4.207-5.796v5.796h-1.319zM5.24 10.149H4V2.377h1.014l2.664 3.597 2.654-3.592h1.03v7.766h-1.256V4.762L7.678 8.068 5.24 4.742v5.407z" transform="translate(606.7740478515625, 408.482177734375)" fill="#ababab88" stroke="none"></path></svg>